PathFileType	4	(X/Y/Z)	OpenSim_Sub06_CSBaseline_Gyro.trc
DataRate	CameraRate	NumFrames	NumMarkers	Units	OrigDataRate	OrigDataStartFrame	OrigNumFrames
100	100	33	8	m	100	6370	8492
Frame#	Time	torso_imu_offset_imu	pelvis_imu_offset_imu	tibia_r_imu_offset_imu	femur_r_imu_offset_imu	tibia_l_imu_offset_imu	femur_l_imu_offset_imu	toes_r_imu_offset_imu	toes_l_imu_offset_imu
				X1	Y1	Z1	X2	Y2	Z2	X3	Y3	Z3	X4	Y4	Z4	X5	Y5	Z5	X6	Y6	Z6	X7	Y7	Z7	X8		Y8	Z8	

6370	63.69000000	0.34225395	-0.18835826	-0.00341696	0.03843908	0.22070680	0.00321755	0.58100438	-0.01583843	-0.54133182	0.21986038	-0.24149123	-0.92408480	0.48329492	-0.17020072	-4.81794091	-0.26186418	-0.58509752	0.46823217	0.01436101	-0.07905910	-0.21176701	1.17511792	3.57339089	-1.65810440
6371	63.70000000	0.31158360	-0.18457460	-0.02240374	0.01293651	0.15432312	0.01269028	0.49844772	-0.00079623	-0.57546269	0.41413149	-0.22225928	-0.92697894	-0.49748561	-0.10407727	-4.77941227	0.04736645	-0.57774172	0.37121513	0.01303766	-0.08543380	-0.19759405	0.94360623	3.57173650	-2.10250462
6372	63.71000000	0.28216116	-0.18652510	-0.03355211	-0.03955979	0.05415169	0.00042292	0.30786347	0.01963660	-0.61158364	0.57750438	-0.22944180	-0.90992879	-1.34772678	0.12784920	-4.49578644	0.32580842	-0.48799708	0.34038472	0.02011767	-0.09706390	-0.21093413	0.48348842	3.33846180	-2.50738308
6373	63.72000000	0.23853511	-0.19824883	-0.04133563	-0.05556489	-0.04448854	-0.00576234	0.07519710	0.05301984	-0.64878326	0.64802029	-0.26350177	-0.89804001	-1.70254131	0.25247748	-4.14651579	0.53346714	-0.31261144	0.38077140	0.03147539	-0.10878912	-0.24017545	0.02715078	3.04050598	-2.80169161
6374	63.73000000	0.22483252	-0.21530342	-0.04780723	-0.09000514	-0.14545085	-0.04540004	-0.11291644	0.06187323	-0.68201103	0.66582032	-0.30907440	-0.90110823	-1.74171457	0.25857049	-3.78661505	0.79349541	-0.10720566	0.45760122	0.03214436	-0.11192782	-0.28712032	-0.35583482	2.79584129	-2.96466134
6375	63.74000000	0.18807020	-0.20956854	-0.06017511	-0.12290759	-0.21643866	-0.06894768	-0.28025576	0.08047445	-0.74431059	0.57113254	-0.34054509	-0.89126950	-1.69551839	0.34246848	-3.38878403	0.96276295	0.04477502	0.61388814	0.07545512	-0.11288226	-0.33856282	-0.66929572	2.54358452	-2.97000455
6376	63.75000000	0.15976933	-0.20682211	-0.08041732	-0.13269270	-0.24263732	-0.07034476	-0.37531848	0.08819482	-0.82981828	0.35587071	-0.32150872	-0.86916342	-1.38610027	0.59322181	-2.98859503	0.91147609	0.10972005	0.74215201	0.07328427	-0.11773870	-0.38376039	-0.89176431	2.27706704	-2.79774570
6377	63.76000000	0.11588321	-0.18570516	-0.10450505	-0.16021599	-0.25026585	-0.09746310	-0.40302151	0.12612388	-0.91008863	0.17017316	-0.34338601	-0.78473861	-0.77952554	0.72154375	-2.61238380	0.80667589	0.13878504	0.81648657	0.08520283	-0.12854212	-0.41469578	-0.97006549	2.03741630	-2.47755410
6378	63.77000000	0.08539426	-0.18133851	-0.11788776	-0.20027197	-0.25616325	-0.12289453	-0.37351493	0.17948389	-1.00070358	0.00795684	-0.35877023	-0.71040096	-0.14444799	0.52240744	-2.20393142	0.75397456	0.13808932	0.86513107	0.14932709	-0.17891132	-0.46529872	-0.88546064	1.78771431	-2.02465421
6379	63.78000000	0.03905404	-0.17670741	-0.10184764	-0.23291996	-0.25684739	-0.13140041	-0.28835627	0.21149656	-1.08437460	-0.06639942	-0.37707641	-0.58746909	0.27488858	0.24739170	-1.68681530	0.62959834	0.03773229	0.83459774	0.15907947	-0.20583121	-0.49913312	-0.65963968	1.51132526	-1.46898596
6380	63.79000000	-0.01136829	-0.13472240	-0.07168270	-0.25488756	-0.23774818	-0.16233099	-0.18493009	0.24125987	-1.18920807	-0.16897606	-0.28323408	-0.49044639	0.52346692	0.05724847	-1.14194667	0.33832700	-0.16314816	0.76498617	0.19729784	-0.25500820	-0.53584986	-0.25276656	1.19891739	-0.85940255
6381	63.80000000	-0.07255405	-0.08608567	-0.03204650	-0.27262586	-0.20160130	-0.17448394	-0.16782749	0.23660525	-1.30605853	-0.28245081	-0.17098889	-0.40784552	0.74350719	-0.15191134	-0.62334387	0.16507719	-0.35070713	0.80985412	0.26720103	-0.31597117	-0.58156307	0.18235608	0.87229401	-0.26512197
6382	63.81000000	-0.12152458	-0.05337392	-0.00456289	-0.28265768	-0.16242075	-0.16816789	-0.15554384	0.25032624	-1.41220517	-0.37511698	-0.05507103	-0.29660939	0.98192739	-0.36672670	-0.11101069	-0.16559216	-0.53834422	0.71164298	0.31701198	-0.38869934	-0.62663260	0.85010606	0.25283747	0.43727174
6383	63.82000000	-0.15577671	-0.00355706	0.00708707	-0.29874319	-0.12894957	-0.17591235	-0.14820883	0.27341909	-1.50655764	-0.42985967	0.07620769	-0.15100162	1.09747374	-0.47173010	0.39054267	-0.55055631	-0.71272492	0.56465464	0.38091610	-0.50409826	-0.68209264	-1.15647643	-1.43561289	1.11991357
6384	63.83000000	-0.20291308	0.03707073	0.01000460	-0.29816239	-0.11777318	-0.17080249	-0.15736432	0.27625312	-1.61179757	-0.48648544	0.17271876	-0.00169290	1.04953799	-0.48582511	0.85144159	-0.75594603	-0.83031045	0.41362778	0.39219343	-0.64666491	-0.71918356	-1.00193299	-1.84118501	0.85478995
6385	63.84000000	-0.24027617	0.08216210	0.00820010	-0.32189206	-0.13959308	-0.22287918	-0.18816319	0.25133435	-1.71743850	-0.55275837	0.27521295	0.10266722	1.10532570	-0.30332949	1.46062965	-0.82397172	-0.94766016	0.35835549	0.38612715	-0.82837109	-0.77372670	0.26134890	-2.34528695	0.11238924
6386	63.85000000	-0.21750096	0.10344675	-0.00261262	-0.31499253	-0.21237908	-0.25917254	-0.22275567	0.23873226	-1.81438385	-0.49266641	0.34813651	0.16071702	1.06214905	0.18345358	2.02696983	-0.70174805	-1.26742439	0.34480195	0.41136250	-1.04276833	-0.84295621	-4.48027512	3.62203595	-0.13595648
6387	63.86000000	-0.28194753	0.08780037	-0.02519143	-0.21844865	-0.29601018	-0.36159120	-0.10152382	0.25927662	-1.88658857	-0.43773909	0.38250281	0.19439013	0.64189538	0.08502731	2.01080139	-0.63024482	-1.30853612	0.14445266	0.45249552	-1.32854023	-0.91991353	0.77153579	0.45835174	0.50820400
6388	63.87000000	-0.28189069	0.09156813	-0.00888504	-0.07727740	-0.36084136	-0.52838989	-0.09323530	0.22701933	-1.93942954	-0.33252030	0.39827469	0.27070571	0.08156910	-0.50792197	1.59063232	-0.59963206	-0.74829406	0.16655231	0.47782602	-1.63346367	-1.05527461	0.89571222	-0.95362408	0.15551090
6389	63.88000000	-0.26737715	0.10645657	0.03464569	0.06443196	-0.37284186	-0.69189753	-0.18263123	0.13658688	-1.99746537	-0.18326173	0.44219417	0.36434753	-0.54434835	-0.43627064	1.21249666	-0.62891351	-0.15486171	0.24289431	0.48062086	-1.95180213	-1.18690212	-1.70926439	0.01567666	0.09942097
6390	63.89000000	-0.23600980	0.12089955	0.03029821	0.25169760	-0.32328612	-0.69121889	-0.12682125	0.05810577	-2.05344977	-0.05301112	0.49275947	0.47574423	-1.30489760	-0.02037651	1.10499895	-0.71680245	-0.10248009	0.27884996	0.47595553	-2.30573064	-1.30307010	0.51229685	-0.22963373	0.08341331
6391	63.90000000	-0.18540284	0.13303393	-0.02883791	0.43280678	-0.23693312	-0.53699338	-0.08051805	0.00009826	-2.09197348	0.04501093	0.55978729	0.62955374	-2.24177670	0.05617911	1.17511797	-0.88617427	-0.25667871	0.59696211	0.30236534	-2.67875785	-1.38407808	-0.13190257	-0.45368165	0.07248815
6392	63.91000000	-0.16178883	0.13479781	-0.07918955	0.52375162	-0.15408531	-0.33530376	-0.10315875	-0.05466534	-2.12502480	0.10082377	0.70270319	0.81177837	-2.89040410	-0.36247812	1.29089570	-0.98522703	-0.32786361	0.88269069	0.25804164	-3.09698683	-1.47063473	0.03028655	-0.18988490	-0.04849169
6393	63.92000000	-0.19227281	0.15976687	-0.08545501	0.52611578	-0.09228543	-0.14687757	-0.14537764	-0.08918549	-2.15693174	0.10985773	0.89660358	0.96734721	-2.49620565	-0.93260808	1.18375670	-0.83900606	-0.10121696	1.57391831	0.21968488	-3.48212618	-1.55896714	0.14440864	-0.01828276	-0.13779850
6394	63.93000000	-0.26020857	0.17476892	-0.06267971	0.41172027	-0.04958421	-0.01320881	-0.18003138	-0.11827408	-2.19373225	0.13188914	1.05738037	1.09066341	-1.35482871	-0.80128982	0.99438293	-0.62194950	-0.25092358	1.16487007	0.27245701	-3.86978004	-1.63451971	0.23541986	-0.00905401	-0.12198386
6395	63.94000000	-0.34869464	0.19031361	-0.03498511	0.23203480	-0.04108884	0.05332232	-0.30089508	-0.11629012	-2.22638112	-0.12702718	1.19556570	1.18769727	-0.17230227	-0.14310640	0.76147723	-0.47900036	-0.52811342	0.96584556	0.41523373	-4.24561975	-1.75289426	0.13741954	0.01549525	-0.05676458
6396	63.95000000	-0.44665160	0.19897110	-0.01162450	0.05130462	-0.04048004	0.04567590	-0.35608311	-0.06187647	-2.27107473	-0.40603672	1.42356244	1.41804837	0.44159714	-0.02385017	0.45203568	-0.41288334	-0.84981884	1.02306183	0.54249979	-4.58782941	-1.89407439	0.04770285	0.00080896	-0.00089433
6397	63.96000000	-0.53107185	0.21606599	0.02504725	-0.12103182	-0.02531700	-0.00013932	-0.29119105	0.01349863	-2.30107090	-0.41614941	1.52574189	1.61478144	0.43594504	-0.22888158	0.34695874	-0.13761791	-0.93134674	1.18577858	0.49541206	-4.94416057	-2.07018715	0.05089224	0.05535337	0.02493336
6398	63.97000000	-0.58320802	0.21900097	0.06351549	-0.26054159	0.05240649	-0.04926334	-0.26719424	0.04988381	-2.29270018	-0.30482837	1.54655771	1.80712349	0.21315724	-0.26146381	0.45584424	0.29547479	-0.83440143	1.26416187	0.68608101	-5.19749398	-2.28367642	0.08319356	0.06030834	0.01103060
6399	63.98000000	-0.59563230	0.20996405	0.10053899	-0.34149874	0.17277296	-0.06756273	-0.37051034	0.06505287	-2.26678997	-0.16632897	1.55429422	1.98170297	0.06877837	-0.25467759	0.50507522	0.55752448	-0.75011800	1.26081863	0.79186083	-5.37165060	-2.54753359	0.06325307	0.04165978	0.02065609
6400	63.99000000	-0.59179760	0.18405326	0.10788650	-0.37088852	0.27711802	-0.08764514	-0.62332127	0.03568171	-2.22230758	-0.00495236	1.52633395	2.09368293	0.10253297	-0.26486702	0.47703516	0.60131433	-0.58422359	1.26232155	0.69296437	-5.32191468	-2.78870127	0.10104619	0.02931217	0.02327219
6401	64.00000000	-0.58399534	0.13514593	0.08712133	-0.37161355	0.32792161	-0.10144263	-0.96312595	-0.04805718	-2.10765734	0.13521297	1.51540883	2.11819745	0.11114479	-0.19851749	0.42033252	0.58490885	-0.31283914	1.27404904	0.63787282	-5.24856199	-3.03969653	0.05798949	0.02541152	0.05181984
6402	64.01000000	-0.60203147	0.08429448	0.06061467	-0.33037423	0.33819625	-0.10959484	-1.22921810	-0.18865129	-1.87287261	0.35739107	1.46190048	1.79943671	-0.12184531	-0.14386507	0.33176573	0.37579936	-0.21995416	1.25208389	0.73176004	-4.93969899	-3.30334279	0.08618204	0.06164178	0.03423472
